<?xml version="1.0" encoding="UTF-8"?>
<svg width="25px" height="25px" viewBox="0 0 25 25" version="1.1" xmlns="http://www.w3.org/2000/svg" xmlns:xlink="http://www.w3.org/1999/xlink">
    <!-- Generator: sketchtool 53 (72520) - https://sketchapp.com -->
    <title>7008F288-4828-4784-8461-5F5363FB2803</title>
    <desc>Created with sketchtool.</desc>
    <g id="Page-1" stroke="none" stroke-width="1" fill="none" fill-rule="evenodd" stroke-linecap="round">
        <g id="A10-icons-(Dark)" transform="translate(-387.000000, -538.000000)" stroke="#383838">
            <g id="Harmony-Controller" transform="translate(49.000000, 51.000000)">
                <g id="Row-4" transform="translate(12.000000, 484.000000)">
                    <g id="-g-configaration" transform="translate(327.000000, 4.000000)">
                        <path d="M0.96,-1.95399252e-13 L21.9965217,-1.95399252e-13 C22.5266087,-1.95399252e-13 22.9565217,0.429913043 22.9565217,0.96 L22.9565217,21.9965217 C22.9565217,22.5266087 22.5266087,22.9565217 21.9965217,22.9565217 L0.96,22.9565217 C0.429913043,22.9565217 2.66453526e-14,22.5266087 2.66453526e-14,21.9965217 L2.66453526e-14,0.96 C2.66453526e-14,0.429913043 0.429913043,-1.95399252e-13 0.96,-1.95399252e-13 Z" id="Stroke-1"></path>
                        <path d="M18,14 L18,19.5" id="Line-Copy"></path>
                        <path d="M18,3.5 L18,10" id="Line-Copy"></path>
                        <circle id="Oval-Copy-2" cx="18" cy="12" r="2"></circle>
                        <path d="M11,7 L11,19.5" id="Line"></path>
                        <circle id="Oval" cx="11" cy="5" r="2"></circle>
                        <path d="M4,3.5 L4,13" id="Line-Copy-2"></path>
                        <path d="M4,17 L4,19.5" id="Line-Copy-2"></path>
                        <circle id="Oval-Copy" cx="4" cy="15" r="2"></circle>
                    </g>
                </g>
            </g>
        </g>
    </g>
</svg>