<?xml version="1.0" encoding="UTF-8"?>
<svg width="22px" height="25px" viewBox="0 0 22 25" version="1.1" xmlns="http://www.w3.org/2000/svg" xmlns:xlink="http://www.w3.org/1999/xlink">
    <!-- Generator: sketchtool 53 (72520) - https://sketchapp.com -->
    <title>2B683E38-9187-4637-A7BA-1BA37884D038</title>
    <desc>Created with sketchtool.</desc>
    <g id="Page-1" stroke="none" stroke-width="1" fill="none" fill-rule="evenodd">
        <g id="A10-icons-(Dark)" transform="translate(-79.000000, -1042.000000)" stroke="#383838">
            <g id="Thunder-ADC-icons" transform="translate(51.000000, 743.000000)">
                <g id="Row-3" transform="translate(26.000000, 299.000000)">
                    <g id="-g-CRL" transform="translate(3.000000, 0.000000)">
                        <path d="M11.8808025,22.5396313 C13.4208222,22.5396313 15.7308517,22.5396313 18.8108911,22.5396313 C19.2165955,22.5396313 19.5471694,22.2130643 19.5521781,21.80736 L19.5521781,1.23264 C19.5471694,0.826935652 19.2165955,0.501370435 18.8108911,0.501370435 L2.19203896,0.501370435 C1.78833809,0.501370435 1.46076939,0.827937391 1.46076939,1.23264 C1.46076939,5.60632557 1.46076939,8.88658975 1.46076939,11.0734325" id="Stroke-1" stroke-linecap="round"></path>
                        <path d="M4.31592626,4.97884383 L10.426535,4.97884383" id="Stroke-3"></path>
                        <path d="M4.31592626,8.12400417 L10.2963089,8.12400417" id="Stroke-5"></path>
                        <path d="M4.31592626,11.2793823 L10.2963089,11.2793823" id="Stroke-7"></path>
                        <polygon id="Stroke-9" points="12.6306616 11.3996911 12.6306616 18.0312042 14.783399 15.056039 16.9381398 18.0312042 16.9381398 11.4297433"></polygon>
                        <path d="M14.774001,4.80001841 C13.5128115,4.79500971 12.4860288,5.81277667 12.4800184,7.07396623 C12.4750097,8.3351558 13.4927767,9.36294015 14.7539662,9.36794884 C16.0151558,9.37295754 17.0429401,8.35519058 17.0489506,7.09400102 L17.0489506,7.07396623 C17.0429401,5.82079058 16.0281784,4.8050271 14.774001,4.80001841" id="Stroke-11"></path>
                        <path d="M5.18600994,13.4400416 C2.33485967,13.4287172 0.013629304,15.7298422 4.16140808e-05,18.5813348 C-0.0112814609,21.4328273 2.28956737,23.7566012 5.14071764,23.7679256 C7.99186791,23.7792501 10.3153629,21.478125 10.3289506,18.6266325 L10.3289506,18.5813348 C10.3153629,15.7479613 8.02130791,13.4513661 5.18600994,13.4400416" id="Stroke-11-Copy"></path>
                        <path d="M2.88,21.12 L7.68,16.32" id="Stroke-1" stroke-linecap="round"></path>
                        <path d="M7.68,21.12 L2.88,16.32" id="Stroke-3" stroke-linecap="round"></path>
                    </g>
                </g>
            </g>
        </g>
    </g>
</svg>