<?xml version="1.0" encoding="UTF-8"?>
<svg width="23px" height="24px" viewBox="0 0 23 24" version="1.1" xmlns="http://www.w3.org/2000/svg" xmlns:xlink="http://www.w3.org/1999/xlink">
    <!-- Generator: sketchtool 53 (72520) - https://sketchapp.com -->
    <title>023B469F-598F-48BE-8C15-2C21508C0B61</title>
    <desc>Created with sketchtool.</desc>
    <g id="Page-1" stroke="none" stroke-width="1" fill="none" fill-rule="evenodd">
        <g id="A10-icons-(Dark)" transform="translate(-890.000000, -379.000000)" stroke="#383838">
            <g id="Harmony-Controller" transform="translate(49.000000, 51.000000)">
                <g id="Row-3" transform="translate(12.000000, 327.000000)">
                    <g id="-g-Service" transform="translate(829.000000, 1.000000)">
                        <polyline id="Path" stroke-linecap="round" stroke-linejoin="round" points="19.7647059 10.153074 19.7647059 6.27272727 10.171123 0.737967914 10.171123 0.737967914 0.592299465 6.27272727 0.592299465 17.342246 9.97925134 22.8327273 11.7219423 21.8549278"></polyline>
                        <polyline id="Stroke-3" stroke-linejoin="round" points="0.592004278 6.49397005 9.97895615 12.1320449 19.7644107 6.49397005"></polyline>
                        <path d="M9.97939893,12.1324877 L9.97939893,22.8330225" id="Stroke-5" stroke-linejoin="round"></path>
                        <path d="M17.0002988,18 C16.4487601,18 16,17.551374 16,17 C16,16.448626 16.4487601,16 17.0002988,16 C17.5518375,16 18,16.448626 18,17 C18,17.551374 17.5518375,18 17.0002988,18 Z" id="Stroke-1" stroke-width="1.356"></path>
                        <path d="M17.6066667,22 L16.3916667,22 C16.2925,22 16.2116667,21.9191599 16.2116667,21.8191516 L16.2116667,20.731561 C15.745,20.6340528 15.3116667,20.4557046 14.9166667,20.1990166 L14.1508333,20.9657471 C14.08,21.0365864 13.965,21.0365864 13.8941667,20.9657471 L13.0358333,20.1073423 C12.965,20.036503 12.965,19.9223269 13.0358333,19.8514876 L13.8025,19.0847571 C13.545,18.6905575 13.3658333,18.2555213 13.2683333,17.7888157 L12.1808333,17.7888157 C12.0808333,17.7888157 12,17.7079757 12,17.6079673 L12,16.3928661 C12,16.2936911 12.0808333,16.2128511 12.1808333,16.2128511 L13.2675,16.2128511 C13.365,15.7453121 13.5433333,15.3111093 13.8008333,14.9169097 L13.035,14.1493458 C12.9641667,14.0793399 12.9641667,13.9651638 13.035,13.8943245 L13.8933333,13.0350863 C13.9641667,12.9650804 14.0783333,12.9650804 14.1491667,13.0350863 L14.915,13.8018168 C15.3091667,13.5442954 15.7441667,13.3659472 16.2116667,13.2676056 L16.2116667,12.1808484 C16.2116667,12.0816735 16.2925,12 16.3916667,12 L17.6066667,12 C17.7066667,12 17.7866667,12.0816735 17.7866667,12.1808484 L17.7866667,13.2676056 C18.2541667,13.3659472 18.6891667,13.5442954 19.0833333,13.8034836 L19.8508333,13.0350863 C19.9216667,12.9650804 20.0358333,12.9650804 20.1066667,13.0350863 L20.965,13.8943245 C21.0358333,13.9651638 21.0358333,14.0793399 20.965,14.1493458 L20.1983333,14.9185765 C20.4541667,15.3127761 20.6333333,15.7461455 20.73,16.2128511 L21.8191667,16.2128511 C21.9183333,16.2128511 22,16.2936911 22,16.3928661 L22,17.6079673 C22,17.7079757 21.9183333,17.7888157 21.8191667,17.7888157 L20.73,17.7888157 C20.6333333,18.2538545 20.4541667,18.6880573 20.1958333,19.0830903 L20.9641667,19.8514876 C21.035,19.9223269 21.035,20.036503 20.9641667,20.1073423 L20.1058333,20.9657471 C20.0375,21.0332528 19.9166667,21.0332528 19.8491667,20.9657471 L19.0816667,20.1973498 C18.6883333,20.4548712 18.2541667,20.632386 17.7866667,20.731561 L17.7866667,21.8191516 C17.7866667,21.9191599 17.7066667,22 17.6066667,22 Z" id="Stroke-3"></path>
                    </g>
                </g>
            </g>
        </g>
    </g>
</svg>