<?xml version="1.0" encoding="UTF-8"?>
<svg width="24px" height="23px" viewBox="0 0 24 23" version="1.1" xmlns="http://www.w3.org/2000/svg" xmlns:xlink="http://www.w3.org/1999/xlink">
    <!-- Generator: sketchtool 53 (72520) - https://sketchapp.com -->
    <title>7A2947D4-2594-4132-99DB-9DF98A677D0D</title>
    <desc>Created with sketchtool.</desc>
    <g id="Page-1" stroke="none" stroke-width="1" fill="none" fill-rule="evenodd">
        <g id="A10-icons-(Dark)" transform="translate(-699.000000, -539.000000)" stroke="#383838">
            <g id="Harmony-Controller" transform="translate(49.000000, 51.000000)">
                <g id="Row-4" transform="translate(12.000000, 484.000000)">
                    <g id="-g-Settings" transform="translate(638.000000, 4.000000)">
                        <path d="M22.6102545,6.80371364 L21.9296636,4.26430455 L19.4676182,6.72635 C19.0943909,7.10062273 18.4880273,7.10062273 18.1137545,6.72635 L16.4661182,5.07871364 C16.0928909,4.70444091 16.0928909,4.09912273 16.4661182,3.72589545 L18.9292091,1.26385 L16.3898,0.583259091 L12.7976182,4.17439545 L13.3151182,6.10744091 C13.2659818,6.15030455 13.2147545,6.19421364 13.1666636,6.24125909 L1.84125455,17.5677136 C0.799981818,18.6089864 0.799981818,20.3109864 1.84125455,21.3522591 C2.88148182,22.3924864 4.58452727,22.3924864 5.62475455,21.3522591 L16.9512091,10.0258045 C16.9993,9.97875909 17.0421636,9.92753182 17.0850273,9.87735 L19.0180727,10.3958955 L22.6102545,6.80371364 Z" id="Stroke-1"></path>
                        <path d="M4.7242,20.3476818 C4.20565455,20.8662273 3.36406364,20.8662273 2.84551818,20.3476818 C2.32697273,19.8280909 2.32697273,18.9875455 2.84551818,18.469 C3.36406364,17.9494091 4.20565455,17.9494091 4.7242,18.469 C5.24274545,18.9875455 5.24274545,19.8280909 4.7242,20.3476818 Z" id="Stroke-3"></path>
                        <polyline id="Stroke-5" points="9.51342727 8.27749091 6.08433636 4.8484 5.44033636 3.1694 1.44774545 0.828627273 0.655290909 1.62108182 2.99710909 5.61367273 4.67506364 6.25767273 8.10310909 9.68676364"></polyline>
                        <path d="M16.5856136,12.5312364 L21.1270682,17.0726909 C22.2896136,18.2352364 22.2896136,20.1369182 21.1270682,21.3005091 C19.9634773,22.4630545 18.0617955,22.4630545 16.89925,21.3005091 L12.3577955,16.7590545" id="Stroke-7"></path>
                        <path d="M15.1766545,13.9407182 L19.8738818,18.6379455" id="Stroke-9"></path>
                        <path d="M13.7667545,15.3495727 L18.4650273,20.0478455" id="Stroke-11"></path>
                    </g>
                </g>
            </g>
        </g>
    </g>
</svg>