<?xml version="1.0" encoding="UTF-8"?>
<svg width="23px" height="23px" viewBox="0 0 23 23" version="1.1" xmlns="http://www.w3.org/2000/svg" xmlns:xlink="http://www.w3.org/1999/xlink">
    <!-- Generator: sketchtool 53 (72520) - https://sketchapp.com -->
    <title>9D286B22-11F9-4743-9CFD-5480DA6D6FE3</title>
    <desc>Created with sketchtool.</desc>
    <g id="Page-1" stroke="none" stroke-width="1" fill="none" fill-rule="evenodd" stroke-linecap="round">
        <g id="A10-icons-(Light)" transform="translate(-284.000000, -537.000000)" stroke="#FFFFFF">
            <g id="Harmony-Controller" transform="translate(49.000000, 51.000000)">
                <g id="Row-4" transform="translate(12.000000, 484.000000)">
                    <g id="-g-Global" transform="translate(223.000000, 2.000000)">
                        <path d="M11.5,22.4772727 C5.43741968,22.4772727 0.522727273,17.5625803 0.522727273,11.5 C0.522727273,5.43741968 5.43741968,0.522727273 11.5,0.522727273 C17.5625803,0.522727273 22.4772727,5.43741968 22.4772727,11.5 C22.4772727,14.4113537 21.320742,17.203466 19.262104,19.262104 C17.203466,21.320742 14.4113537,22.4772727 11.5,22.4772727 Z" id="Path" stroke-dasharray="2,3"></path>
                        <path d="M12.3990909,18.9122727 L10.6009091,18.9122727 C10.4547778,18.9123809 10.3347113,18.7969323 10.3290909,18.6509091 L10.3290909,18.6509091 L10.3290909,17.0304545 C9.64803308,16.8907317 8.99913729,16.6247908 8.41590909,16.2463636 L7.31818182,17.3754545 C7.21301433,17.4763526 7.04698567,17.4763526 6.94181818,17.3754545 L6.94181818,17.3754545 L5.62454545,16.1104545 C5.57343531,16.0611919 5.5445614,15.993259 5.5445614,15.9222727 C5.5445614,15.8512864 5.57343531,15.7833536 5.62454545,15.7340909 L5.62454545,15.7340909 L6.76409091,14.6363636 C6.37782712,14.0523062 6.10803536,13.3991261 5.96954545,12.7127273 L4.35954545,12.7127273 C4.21341418,12.7128354 4.09334767,12.5973868 4.08772727,12.4513636 L4.08772727,12.4513636 L4.08772727,10.6009091 C4.08772727,10.4507881 4.20942442,10.3290909 4.35954545,10.3290909 L5.96954545,10.3290909 C6.10926831,9.64803308 6.37520921,8.99913729 6.75363636,8.41590909 L5.62454545,7.31818182 C5.52364742,7.21301433 5.52364742,7.04698567 5.62454545,6.94181818 L5.62454545,6.94181818 L6.88954545,5.62454545 C6.93880812,5.57343531 7.00674096,5.5445614 7.07772727,5.5445614 C7.14871359,5.5445614 7.21664643,5.57343531 7.26590909,5.62454545 L7.31818182,5.62454545 L8.36363636,6.75363636 C8.95060376,6.375104 9.60293926,6.10920638 10.2872727,5.96954545 L10.2872727,4.35954545 C10.2871646,4.21341418 10.4026132,4.09334767 10.5486364,4.08772727 L12.3572727,4.08772727 C12.5073938,4.08772727 12.6290909,4.20942442 12.6290909,4.35954545 L12.6290909,5.96954545 C13.3455219,6.09417896 14.028725,6.36461355 14.6363636,6.76409091 L15.6818182,5.62454545 C15.7904934,5.52231339 15.9599611,5.52231339 16.0686364,5.62454545 L16.0686364,5.62454545 L17.3754545,6.9 C17.4750714,7.00162955 17.4750714,7.16427954 17.3754545,7.26590909 L17.3754545,7.26590909 L16.2463636,8.41590909 C16.6247908,8.99913729 16.8907317,9.64803308 17.0304545,10.3290909 L18.6404545,10.3290909 C18.7905756,10.3290909 18.9122727,10.4507881 18.9122727,10.6009091 L18.9122727,12.3990909 C18.9123809,12.5452222 18.7969323,12.6652887 18.6509091,12.6709091 L17.0304545,12.6709091 C16.8982128,13.3721648 16.6281504,14.0402141 16.2359091,14.6363636 L17.3754545,15.6818182 C17.4776866,15.7904934 17.4776866,15.9599611 17.3754545,16.0686364 L17.3754545,16.0686364 L16.1,17.3754545 C16.0507373,17.4265647 15.9828045,17.4554386 15.9118182,17.4554386 C15.8408319,17.4554386 15.772899,17.4265647 15.7236364,17.3754545 L14.6363636,16.2359091 C14.0559562,16.6218701 13.4062513,16.8916929 12.7231818,17.0304545 L12.7231818,18.6404545 C12.724718,18.722589 12.6890266,18.8010124 12.6260849,18.8538022 C12.5631431,18.9065921 12.4797036,18.9280849 12.3990909,18.9122727 Z" id="Path"></path>
                        <path d="M11.5,13.5909091 C10.3452228,13.5909091 9.40909091,12.6547772 9.40909091,11.5 C9.40909091,10.3452228 10.3452228,9.40909091 11.5,9.40909091 C12.6547772,9.40909091 13.5909091,10.3452228 13.5909091,11.5 L13.5909091,11.5 C13.5909091,12.6547772 12.6547772,13.5909091 11.5,13.5909091 Z" id="Path"></path>
                    </g>
                </g>
            </g>
        </g>
    </g>
</svg>