<?xml version="1.0" encoding="UTF-8"?>
<svg width="24px" height="21px" viewBox="0 0 24 21" version="1.1" xmlns="http://www.w3.org/2000/svg" xmlns:xlink="http://www.w3.org/1999/xlink">
    <!-- Generator: sketchtool 53 (72520) - https://sketchapp.com -->
    <title>A6747883-E03E-451F-AECF-102D64A56B8B</title>
    <desc>Created with sketchtool.</desc>
    <g id="Page-1" stroke="none" stroke-width="1" fill="none" fill-rule="evenodd">
        <g id="A10-icons-(Dark)" transform="translate(-492.000000, -540.000000)" stroke="#383838">
            <g id="Harmony-Controller" transform="translate(49.000000, 51.000000)">
                <g id="Row-4" transform="translate(12.000000, 484.000000)">
                    <g id="-g-clusterign" transform="translate(431.000000, 5.000000)">
                        <path d="M10.1513636,12.6918182 L10.1513636,16.1313636" id="Stroke-1"></path>
                        <path d="M2.73909091,17.6786364 L7.15090909,17.6786364" id="Stroke-2" stroke-linejoin="round"></path>
                        <g id="Group-14">
                            <path d="M11.3118182,17.6786364 C11.3118182,18.3599549 10.7595004,18.9122727 10.0781818,18.9122727 C9.39686327,18.9122727 8.84454545,18.3599549 8.84454545,17.6786364 C8.84454545,16.9973178 9.39686327,16.445 10.0781818,16.445 C10.7595004,16.445 11.3118182,16.9973178 11.3118182,17.6786364 Z" id="Stroke-4"></path>
                            <path d="M0.522727273,9.04318182 L0.522727273,4.73590909 C0.522727273,3.13636364 4.87181818,0.522727273 10.235,0.522727273 C15.5981818,0.522727273 19.9472727,2.40454545 19.9472727,4.70454545 L19.9472727,9.04318182" id="Stroke-6" stroke-linecap="round"></path>
                            <path d="M10.235,13.1518182 C4.87181818,13.1518182 0.522727273,11.2595455 0.522727273,8.97" id="Stroke-8" stroke-linejoin="round"></path>
                            <path d="M19.9472727,4.72545455 C19.9472727,7.05681818 15.5981818,8.90727273 10.235,8.90727273 C4.87181818,8.90727273 0.522727273,7.05681818 0.522727273,4.72545455" id="Stroke-10"></path>
                            <path d="M3.20954545,9.74363636 C2.71792044,9.52714838 2.25162614,9.25718852 1.81909091,8.93863636" id="Stroke-12"></path>
                        </g>
                        <path d="M17.8354545,16.3195455 C17.1194927,16.3195455 16.5390909,15.7391437 16.5390909,15.0231818 C16.5390909,14.30722 17.1194927,13.7268182 17.8354545,13.7268182 C18.5514164,13.7268182 19.1318182,14.30722 19.1318182,15.0231818 L19.1318182,15.0231818 C19.1318182,15.7391437 18.5514164,16.3195455 17.8354545,16.3195455 L17.8354545,16.3195455 Z" id="Path"></path>
                        <path d="M18.4,19.665 L17.2709091,19.665 C17.1785269,19.665 17.1036364,19.5901094 17.1036364,19.4977273 L17.1036364,19.4977273 L17.1036364,18.4522727 C16.6755998,18.3598135 16.2681186,18.1897344 15.9013636,17.9504545 L15.1904545,18.6613636 C15.1259491,18.7224328 15.02496,18.7224328 14.9604545,18.6613636 L14.9604545,18.6613636 L14.1659091,17.8668182 C14.1034604,17.7988306 14.1034604,17.6943512 14.1659091,17.6263636 L14.1659091,17.6263636 L14.8768182,16.9259091 C14.638076,16.5562404 14.4713616,16.1447751 14.3854545,15.7131818 L13.34,15.7131818 C13.2515512,15.7133547 13.1782552,15.6446397 13.1727273,15.5563636 L13.1727273,15.5563636 L13.1727273,14.4690909 C13.1725641,14.3748768 13.2459489,14.2969055 13.34,14.2913636 L14.3854545,14.2913636 C14.4693891,13.8624327 14.6363024,13.4540278 14.8768182,13.0890909 L14.1659091,12.3781818 C14.1048399,12.3136764 14.1048399,12.2126873 14.1659091,12.1481818 L14.1659091,12.1481818 L14.9604545,11.3431818 C15.0284421,11.2807331 15.1329215,11.2807331 15.2009091,11.3431818 L15.2009091,11.3431818 L15.9118182,12.0540909 C16.2767551,11.8135751 16.6851599,11.6466618 17.1140909,11.5627273 L17.1140909,10.5172727 C17.1192551,10.4271162 17.1912071,10.3551642 17.2813636,10.35 L18.4,10.35 C18.4923822,10.35 18.5672727,10.4248906 18.5672727,10.5172727 L18.5672727,11.5627273 C18.9982085,11.6457632 19.4074509,11.8165774 19.7695455,12.0645455 L20.4804545,11.3431818 C20.5484421,11.2807331 20.6529215,11.2807331 20.7209091,11.3431818 L20.7209091,11.3431818 L21.5154545,12.1481818 C21.5765237,12.2126873 21.5765237,12.3136764 21.5154545,12.3781818 L21.5154545,12.3781818 L20.8045455,13.0890909 C21.0414251,13.4559347 21.2080436,13.8636183 21.2959091,14.2913636 L22.3413636,14.2913636 C22.4354148,14.2969055 22.5087995,14.3748768 22.5086364,14.4690909 L22.5086364,15.5877273 C22.5086364,15.6801094 22.4337458,15.755 22.3413636,15.755 L21.2959091,15.755 C21.2119746,16.183931 21.0450613,16.5923359 20.8045455,16.9572727 L21.5154545,17.6681818 C21.5779033,17.7361694 21.5779033,17.8406488 21.5154545,17.9086364 L21.5154545,17.9086364 L20.7209091,18.7031818 C20.6529215,18.7656305 20.5484421,18.7656305 20.4804545,18.7031818 L19.7695455,17.9922727 C19.4027905,18.2315526 18.9953093,18.4016317 18.5672727,18.4940909 L18.5672727,19.5395455 C18.547741,19.6153534 18.4782446,19.6674757 18.4,19.665 Z" id="Path"></path>
                    </g>
                </g>
            </g>
        </g>
    </g>
</svg>