<?xml version="1.0" encoding="UTF-8"?>
<svg width="26px" height="17px" viewBox="0 0 26 17" version="1.1" xmlns="http://www.w3.org/2000/svg" xmlns:xlink="http://www.w3.org/1999/xlink">
    <!-- Generator: sketchtool 53 (72520) - https://sketchapp.com -->
    <title>648276B2-D082-46C4-A5D8-7EE13077FE0C</title>
    <desc>Created with sketchtool.</desc>
    <g id="Page-1" stroke="none" stroke-width="1" fill="none" fill-rule="evenodd">
        <g id="A10-icons-(Light)" transform="translate(-584.000000, -3375.000000)">
            <g id="Action-and-miscellaneous-icons" transform="translate(38.000000, 1975.000000)">
                <g id="Row-10" transform="translate(0.000000, 1397.000000)">
                    <g id="-g-hide" transform="translate(547.000000, 4.000000)">
                        <path d="M0.196721311,7.23934426 C2.43934426,9.75737705 4.95737705,11.6852459 8.02622951,12.8262295 C10.8590164,13.8491803 13.6918033,13.7704918 16.4459016,12.6688525 C18.7278689,11.7639344 20.695082,10.3868852 22.4655738,8.69508197 C22.9377049,8.26229508 23.3311475,7.79016393 23.7639344,7.31803279 C23.7245902,7.23934426 23.6852459,7.2 23.6459016,7.16065574 C21.8360656,4.91803279 19.6721311,3.10819672 17.0754098,1.80983607 C14.3606557,0.472131148 11.5278689,0.118032787 8.61639344,1.10163934 C6.21639344,1.88852459 4.1704918,3.22622951 2.36065574,4.91803279 C1.65245902,5.66557377 0.944262295,6.45245902 0.196721311,7.23934426 Z" id="Shape" stroke="#FFFFFF" stroke-linecap="round"></path>
                        <path d="M0.196721311,7.23934426 C0.944262295,6.45245902 1.65245902,5.66557377 2.43934426,4.95737705 C4.24918033,3.26557377 6.29508197,1.88852459 8.69508197,1.14098361 C11.6065574,0.196721311 14.4393443,0.51147541 17.1540984,1.84918033 C19.7508197,3.10819672 21.9147541,4.95737705 23.7245902,7.2 C23.7639344,7.23934426 23.7639344,7.27868852 23.842623,7.35737705 C23.4098361,7.79016393 22.9770492,8.30163934 22.5442623,8.73442623 C20.7737705,10.4262295 18.8065574,11.8032787 16.5245902,12.7081967 C13.7311475,13.8098361 10.8983607,13.9278689 8.10491803,12.8655738 C4.95737705,11.6852459 2.43934426,9.75737705 0.196721311,7.23934426 Z M7.63278689,7.08196721 C7.63278689,9.48196721 9.56065574,11.3704918 11.9213115,11.3704918 C14.0852459,11.4098361 16.3278689,9.6 16.2491803,6.8852459 C16.1704918,4.56393443 14.2032787,2.75409836 11.9213115,2.79344262 C9.52131148,2.79344262 7.59344262,4.68196721 7.63278689,7.08196721 Z" id="Shape" stroke="#FFFFFF" stroke-linecap="round"></path>
                        <path d="M14.242623,5.66557377 C14.8721311,6.5704918 14.7934426,7.71147541 14.0852459,8.69508197 C13.3377049,9.67868852 12,10.0327869 10.8590164,9.56065574 C9.71803279,9.08852459 9.04918033,7.86885246 9.20655738,6.68852459 C9.40327869,5.39016393 10.3868852,4.4852459 11.8032787,4.32786885 C11.252459,4.95737705 11.095082,5.62622951 11.5672131,6.33442623 C11.9213115,6.84590164 12.4327869,7.04262295 13.0622951,6.92459016 C13.6131148,6.80655738 14.0065574,6.41311475 14.242623,5.66557377 Z" id="Shape" fill="#FFFFFF" fill-rule="nonzero"></path>
                        <path d="M4.28852459,0.0786885246 L19.6721311,15.4622951" id="Shape" stroke="#FFFFFF" stroke-linecap="round"></path>
                    </g>
                </g>
            </g>
        </g>
    </g>
</svg>