<?xml version="1.0" encoding="UTF-8"?>
<svg width="24px" height="23px" viewBox="0 0 24 23" version="1.1" xmlns="http://www.w3.org/2000/svg" xmlns:xlink="http://www.w3.org/1999/xlink">
    <!-- Generator: sketchtool 53 (72520) - https://sketchapp.com -->
    <title>2B384E36-303C-43E9-B204-66912AADF5C9</title>
    <desc>Created with sketchtool.</desc>
    <g id="Page-1" stroke="none" stroke-width="1" fill="none" fill-rule="evenodd" stroke-linejoin="round">
        <g id="A10-icons-(Dark)" transform="translate(-75.000000, -535.000000)" stroke="#383838">
            <g id="Harmony-Controller" transform="translate(49.000000, 51.000000)">
                <g id="Row-4" transform="translate(12.000000, 484.000000)">
                    <g id="-g-Network" transform="translate(14.000000, 0.000000)">
                        <path d="M0.867234783,0.521530435 L5.91558261,0.521530435 C6.10653913,0.521530435 6.26097391,0.675965217 6.26097391,0.867965217 L6.26097391,4.76953043 C6.26097391,4.96048696 6.10653913,5.11492174 5.91558261,5.11492174 L0.867234783,5.11492174 C0.676278261,5.11492174 0.521843478,4.96048696 0.521843478,4.76953043 L0.521843478,0.867965217 C0.521843478,0.675965217 0.676278261,0.521530435 0.867234783,0.521530435 Z" id="Stroke-1"></path>
                        <path d="M8.84514783,8.556 L15.1550609,8.556 C15.3929739,8.556 15.5870609,8.75008696 15.5870609,8.988 L15.5870609,13.8662609 C15.5870609,14.1041739 15.3929739,14.2982609 15.1550609,14.2982609 L8.84514783,14.2982609 C8.6061913,14.2982609 8.41314783,14.1041739 8.41314783,13.8662609 L8.41314783,8.988 C8.41314783,8.75008696 8.6061913,8.556 8.84514783,8.556 Z" id="Stroke-3"></path>
                        <path d="M18.0846261,0.521530435 L23.1329739,0.521530435 C23.3239304,0.521530435 23.4783652,0.675965217 23.4783652,0.867965217 L23.4783652,4.76953043 C23.4783652,4.96048696 23.3239304,5.11492174 23.1329739,5.11492174 L18.0846261,5.11492174 C17.8936696,5.11492174 17.7392348,4.96048696 17.7392348,4.76953043 L17.7392348,0.867965217 C17.7392348,0.675965217 17.8936696,0.521530435 18.0846261,0.521530435 Z" id="Stroke-5"></path>
                        <path d="M0.867234783,17.7389217 L5.91558261,17.7389217 C6.10653913,17.7389217 6.26097391,17.8933565 6.26097391,18.0853565 L6.26097391,21.9869217 C6.26097391,22.1778783 6.10653913,22.332313 5.91558261,22.332313 L0.867234783,22.332313 C0.676278261,22.332313 0.521843478,22.1778783 0.521843478,21.9869217 L0.521843478,18.0853565 C0.521843478,17.8933565 0.676278261,17.7389217 0.867234783,17.7389217 Z" id="Stroke-7"></path>
                        <path d="M18.0846261,17.7389217 L23.1329739,17.7389217 C23.3239304,17.7389217 23.4783652,17.8933565 23.4783652,18.0853565 L23.4783652,21.9869217 C23.4783652,22.1778783 23.3239304,22.332313 23.1329739,22.332313 L18.0846261,22.332313 C17.8936696,22.332313 17.7392348,22.1778783 17.7392348,21.9869217 L17.7392348,18.0853565 C17.7392348,17.8933565 17.8936696,17.7389217 18.0846261,17.7389217 Z" id="Stroke-9"></path>
                        <path d="M17.1532174,20.2186435 L6.72052174,20.2186435" id="Stroke-11" stroke-linecap="round"></path>
                        <path d="M20.6576348,5.74142609 L20.6576348,17.2614261" id="Stroke-13" stroke-linecap="round"></path>
                        <path d="M6.85711304,3.00125217 L17.085287,3.00125217" id="Stroke-15" stroke-linecap="round"></path>
                        <path d="M3.44024348,17.1590609 L3.44024348,5.74132174" id="Stroke-17" stroke-linecap="round"></path>
                        <path d="M12.3006261,8.40062609 L12.3006261,3.0528" id="Stroke-19" stroke-linecap="round"></path>
                        <path d="M12.3006261,14.8571478 L12.3006261,19.8783652" id="Stroke-21" stroke-linecap="round"></path>
                        <path d="M7.99627826,11.2701913 L3.69193043,11.2701913" id="Stroke-23" stroke-linecap="round"></path>
                        <path d="M15.8875826,11.2701913 L20.262887,11.2701913" id="Stroke-25" stroke-linecap="round"></path>
                    </g>
                </g>
            </g>
        </g>
    </g>
</svg>