<?xml version="1.0" encoding="UTF-8"?>
<svg width="26px" height="22px" viewBox="0 0 26 22" version="1.1" xmlns="http://www.w3.org/2000/svg" xmlns:xlink="http://www.w3.org/1999/xlink">
    <!-- Generator: sketchtool 53 (72520) - https://sketchapp.com -->
    <title>0C059103-555D-4E39-8A4E-293F52170C3A</title>
    <desc>Created with sketchtool.</desc>
    <g id="Page-1" stroke="none" stroke-width="1" fill="none" fill-rule="evenodd" stroke-linecap="round">
        <g id="A10-icons-(Light)" transform="translate(-785.000000, -379.000000)" stroke="#FFFFFF">
            <g id="Harmony-Controller" transform="translate(49.000000, 51.000000)">
                <g id="Row-3" transform="translate(12.000000, 327.000000)">
                    <g id="-g-User-Role" transform="translate(725.000000, 2.000000)">
                        <path d="M12.4522219,19.2308006 L1.2146087,19.2308006 C0.781961019,19.2308006 0.431352324,18.8801919 0.431352324,18.4475442 L0.431352324,1.21504048 C0.431352324,0.782392804 0.781961019,0.431784108 1.2146087,0.431784108 L18.4177511,0.431784108 C18.8668066,0.431784108 19.2312324,0.795346327 19.2312324,1.01210195 C19.2312324,2.22672296 19.2312324,3.13768871 19.2312324,3.74499922" id="Path"></path>
                        <path d="M7.53221469,3.76748906 L15.7404306,3.76748906" id="Stroke-7"></path>
                        <path d="M3.64028546,4.48304168 L2.92266027,3.76541649" id="Stroke-9"></path>
                        <path d="M3.64028546,4.48304168 L5.08158081,3.04174633" id="Stroke-11"></path>
                        <path d="M7.53221469,9.45322219 L14.0689655,9.45322219" id="Stroke-13"></path>
                        <path d="M3.64028546,10.2585859 L2.92266027,9.54096072" id="Stroke-15"></path>
                        <path d="M3.64028546,10.2585859 L5.08158081,8.81729055" id="Stroke-17"></path>
                        <path d="M7.53221469,14.8715946 L10.5590213,14.8715946" id="Stroke-19"></path>
                        <path d="M3.64028546,15.7297223 L2.92266027,15.0120972" id="Stroke-21"></path>
                        <path d="M3.64028546,15.7297223 L5.08158081,14.288427" id="Stroke-23"></path>
                        <g id="-g-Users" transform="translate(14.068966, 5.793103)">
                            <path d="M4.96568996,0.432129535 C3.60297931,0.432129535 2.41989085,1.6558057 2.49761199,2.89934393 C2.5761967,4.14374573 2.84217571,5.45118801 2.84217571,5.45118801 C3.08397481,6.39938591 3.94236162,7.09973973 4.96568996,7.09973973 C5.98815472,7.09973973 6.8474051,6.39938591 7.0892042,5.45118801 C7.0892042,5.45118801 7.35518321,4.14374573 7.43290435,2.89934393 C7.51148906,1.6558057 6.3284006,0.432129535 4.96568996,0.432129535 Z" id="Stroke-1"></path>
                            <path d="M6.89688756,7.51192084 C6.44437781,8.04474243 5.76906747,8.38498831 5.01430885,8.38498831 C4.25609595,8.38498831 3.5781949,8.04215172 3.12568516,7.50414873 C1.44949925,7.59223268 0.104923538,8.99121319 0.104923538,10.6881247 L0.104923538,13.1726105 C0.104923538,13.4774501 0.354494753,13.7270213 0.660197901,13.7270213 L9.27170015,13.7270213 C9.57653973,13.7270213 9.82611094,13.4774501 9.82611094,13.1726105 L9.82611094,10.6881247 C9.82611094,9.02143808 8.52989505,7.64404678 6.89688756,7.51192084 Z" id="Stroke-3"></path>
                        </g>
                    </g>
                </g>
            </g>
        </g>
    </g>
</svg>