<?xml version="1.0" encoding="UTF-8"?>
<svg width="23px" height="24px" viewBox="0 0 23 24" version="1.1" xmlns="http://www.w3.org/2000/svg" xmlns:xlink="http://www.w3.org/1999/xlink">
    <!-- Generator: sketchtool 53 (72520) - https://sketchapp.com -->
    <title>8BDCF719-83D2-4DB8-8E95-144B23DED2CF</title>
    <desc>Created with sketchtool.</desc>
    <g id="Page-1" stroke="none" stroke-width="1" fill="none" fill-rule="evenodd" stroke-linecap="round">
        <g id="A10-icons-(Dark)" transform="translate(-794.000000, -3371.000000)" stroke="#383838">
            <g id="Action-and-miscellaneous-icons" transform="translate(38.000000, 1973.000000)">
                <g id="Row-10" transform="translate(0.000000, 1398.000000)">
                    <g id="-g-close" transform="translate(756.000000, 1.000000)">
                        <path d="M21.4911747,14.0932562 L16.659798,9.2618795" id="Shape" transform="translate(19.159798, 11.761880) scale(-1, 1) rotate(135.000000) translate(-19.159798, -11.761880) "></path>
                        <polyline id="Shape" transform="translate(18.923402, 11.761880) scale(-1, 1) rotate(135.000000) translate(-18.923402, -11.761880) " points="16.5734019 14.1118795 16.5734019 9.4118795 21.2734019 9.4118795"></polyline>
                        <path d="M8.7,0.472727273 L8.7,22.4727273" id="Line-4"></path>
                        <path d="M14.7,0.472727273 L14.7,22.4727273" id="Line-4-Copy"></path>
                        <polyline id="Shape" transform="translate(4.522616, 11.761093) scale(-1, 1) rotate(315.000000) translate(-4.522616, -11.761093) " points="2.17261569 14.1110933 2.17261569 9.41109332 6.87261569 9.41109332"></polyline>
                        <path d="M5.38760689,13.5855254 L1.06317485,9.26109332" id="Shape" transform="translate(3.563175, 11.761093) scale(-1, 1) rotate(315.000000) translate(-3.563175, -11.761093) "></path>
                    </g>
                </g>
            </g>
        </g>
    </g>
</svg>