<?xml version="1.0" encoding="UTF-8"?>
<svg width="24px" height="24px" viewBox="0 0 24 24" version="1.1" xmlns="http://www.w3.org/2000/svg" xmlns:xlink="http://www.w3.org/1999/xlink">
    <!-- Generator: sketchtool 53 (72520) - https://sketchapp.com -->
    <title>C2A8B631-EBD6-4591-B25A-0193BAA04F6C</title>
    <desc>Created with sketchtool.</desc>
    <g id="Page-1" stroke="none" stroke-width="1" fill="none" fill-rule="evenodd" stroke-linecap="round">
        <g id="A10-icons-(Light)" transform="translate(-179.000000, -534.000000)" stroke="#FFFFFF">
            <g id="Harmony-Controller" transform="translate(49.000000, 51.000000)">
                <g id="Row-4" transform="translate(12.000000, 484.000000)">
                    <g id="-g-Shared-object" transform="translate(119.000000, 0.000000)">
                        <path d="M19.0417652,11.1926435 C19.0417652,15.5553391 15.5045478,19.0916 11.1418522,19.0916 C6.77915652,19.0916 3.24193913,15.5553391 3.24193913,11.1926435 C3.24193913,6.82994783 6.77915652,3.29273043 11.1418522,3.29273043 C15.5045478,3.29273043 19.0417652,6.82994783 19.0417652,11.1926435 Z" id="Stroke-1"></path>
                        <path d="M21.2252174,1.06221739 C22.0038261,1.83986957 22.0038261,3.10247826 21.2252174,3.88108696 C20.4475652,4.65969565 19.1849565,4.65969565 18.4063478,3.88108696 C17.6277391,3.10247826 17.6277391,1.83986957 18.4063478,1.06221739 C19.1849565,0.283608696 20.4475652,0.283608696 21.2252174,1.06221739 Z" id="Stroke-3"></path>
                        <path d="M3.0185913,17.0171913 C3.5992,17.5987565 3.5992,18.5409304 3.0185913,19.1215391 C2.43702609,19.7031043 1.49485217,19.7031043 0.914243478,19.1215391 C0.332678261,18.5409304 0.332678261,17.5987565 0.914243478,17.0171913 C1.49485217,16.4365826 2.43702609,16.4365826 3.0185913,17.0171913 Z" id="Stroke-5"></path>
                        <path d="M21.5643043,19.3987391 C22.144913,19.9793478 22.144913,20.9215217 21.5643043,21.503087 C20.9836957,22.0846522 20.0405652,22.0846522 19.4599565,21.503087 C18.8783913,20.9215217 18.8783913,19.9793478 19.4599565,19.3987391 C20.0405652,18.8181304 20.9836957,18.8181304 21.5643043,19.3987391 Z" id="Stroke-7"></path>
                        <path d="M16.6331478,5.47168696 L18.4065391,3.8809913" id="Stroke-9"></path>
                        <path d="M16.8092435,16.7332 L19.360287,19.2842435" id="Stroke-11"></path>
                        <path d="M3.0185913,17.0171913 L4.57963478,15.6771043" id="Stroke-13"></path>
                        <polygon id="Stroke-15" points="11.0448609 5.44270435 6.29381739 8.1860087 6.29381739 13.6716609 10.9482522 16.3939217 15.7959043 13.6716609 15.7959043 8.1860087"></polygon>
                        <polyline id="Stroke-17" points="6.29353043 8.29361739 10.9479652 11.090487 15.7956174 8.29361739"></polyline>
                        <path d="M10.9481565,11.0902957 L10.9481565,16.3932522" id="Stroke-19"></path>
                    </g>
                </g>
            </g>
        </g>
    </g>
</svg>