<?xml version="1.0" encoding="UTF-8"?>
<svg width="25px" height="25px" viewBox="0 0 25 25" version="1.1" xmlns="http://www.w3.org/2000/svg" xmlns:xlink="http://www.w3.org/1999/xlink">
    <!-- Generator: sketchtool 53 (72520) - https://sketchapp.com -->
    <title>995AAC9D-8C1D-4632-98D4-BE11944DC5B2</title>
    <desc>Created with sketchtool.</desc>
    <g id="Page-1" stroke="none" stroke-width="1" fill="none" fill-rule="evenodd">
        <g id="A10-icons-(Dark)" transform="translate(-180.000000, -1042.000000)">
            <g id="Thunder-ADC-icons" transform="translate(51.000000, 743.000000)">
                <g id="Row-3" transform="translate(26.000000, 299.000000)">
                    <g id="-g-NAT-IP-Pool" transform="translate(104.000000, 1.000000)">
                        <text id="NAT" font-family="Roboto-Medium, Roboto" font-size="3.5" font-weight="400" letter-spacing="-0.04574689" fill="#383838">
                            <tspan x="9.40707898" y="8.92592593">NAT</tspan>
                        </text>
                        <text id="IP" font-family="Roboto-Medium, Roboto" font-size="4" font-weight="400" fill="#383838">
                            <tspan x="10.8440952" y="14.1111111">IP</tspan>
                        </text>
                        <path d="M8.64646465,3.62626263 L16.2424242,3.62626263 C17.3737374,3.62626263 18.2626263,4.51515152 18.2626263,5.64646465 L18.2626263,13.2424242 C18.2626263,14.3737374 17.3737374,15.2626263 16.2424242,15.2626263 L8.64646465,15.2626263 C7.51515152,15.2626263 6.62626263,14.3737374 6.62626263,13.2424242 L6.62626263,5.64646465 C6.62626263,4.51515152 7.51515152,3.62626263 8.64646465,3.62626263 Z" id="Stroke-4" stroke="#383838"></path>
                        <path d="M6.42424242,13.040404 C5.29292929,13.040404 4.4040404,12.1515152 4.4040404,11.020202 L4.4040404,3.42424242 C4.4040404,2.29292929 5.29292929,1.4040404 6.42424242,1.4040404 L14.020202,1.4040404 C15.1515152,1.4040404 16.040404,2.29292929 16.040404,3.42424242" id="Path" stroke="#383838"></path>
                        <path d="M12.4446061,15.9897374 L12.4446061,18.3331717" id="Stroke-6" stroke="#383838"></path>
                        <path d="M6.46448485,19.626101 L10.0200404,19.626101" id="Stroke-8" stroke="#383838" stroke-linejoin="round"></path>
                        <path d="M18.2629495,19.626101 L14.7873939,19.626101" id="Stroke-10" stroke="#383838" stroke-linejoin="round"></path>
                        <path d="M12.3637172,18.6562424 C12.8994747,18.6562424 13.3334141,19.0909899 13.3334141,19.6259394 C13.3334141,20.161697 12.8994747,20.5956364 12.3637172,20.5956364 C11.8279596,20.5956364 11.3940202,20.161697 11.3940202,19.6259394 C11.3940202,19.0909899 11.8279596,18.6562424 12.3637172,18.6562424 Z" id="Stroke-12" stroke="#383838"></path>
                        <path d="M0.96,0 L21.9490909,0 C22.4803636,0 22.9090909,0.429818182 22.9090909,0.96 L22.9090909,21.9490909 C22.9090909,22.4792727 22.4803636,22.9090909 21.9490909,22.9090909 L0.96,22.9090909 C0.429818182,22.9090909 0,22.4792727 0,21.9490909 L0,0.96 C0,0.429818182 0.429818182,0 0.96,0 Z" id="Stroke-13" stroke="#383838" stroke-dasharray="1.963,1.963"></path>
                    </g>
                </g>
            </g>
        </g>
    </g>
</svg>