<?xml version="1.0" encoding="UTF-8"?>
<svg width="24px" height="23px" viewBox="0 0 24 23" version="1.1" xmlns="http://www.w3.org/2000/svg" xmlns:xlink="http://www.w3.org/1999/xlink">
    <!-- Generator: sketchtool 53 (72520) - https://sketchapp.com -->
    <title>DAC75869-74EB-4009-BBDA-F129E7766912</title>
    <desc>Created with sketchtool.</desc>
    <g id="Page-1" stroke="none" stroke-width="1" fill="none" fill-rule="evenodd">
        <g id="A10-icons-(Light)" transform="translate(-757.000000, -1363.000000)">
            <g id="WAF-icons" transform="translate(45.000000, 1161.000000)">
                <g id="Row-2" transform="translate(8.000000, 202.000000)">
                    <g id="-g-L7-DoS" transform="translate(704.000000, 0.000000)">
                        <path d="M12.1329391,4.66789565 L14.9607652,1.73885217" id="Stroke-1" stroke="#FFFFFF" stroke-linecap="round"></path>
                        <polygon id="Fill-2" fill="#FFFFFF" points="15.3621913 5.00973913 14.7350609 4.99826087 14.7955826 1.91165217 11.7121043 2.0786087 11.678713 1.45252174 15.4331478 1.25008696"></polygon>
                        <path d="M12.1329391,4.66789565 L7.83902609,0.521113043" id="Stroke-3" stroke="#FFFFFF" stroke-linecap="round"></path>
                        <path d="M17.7131478,14.6731826 L18.7670609,18.6060522" id="Stroke-5" stroke="#FFFFFF" stroke-linecap="round"></path>
                        <polygon id="Fill-6" fill="#FFFFFF" points="15.7566261 17.2650783 16.0884522 16.7339478 18.7044522 18.3742957 20.1486261 15.6456 20.702713 15.9398609 18.9423652 19.2622957"></polygon>
                        <path d="M17.7131478,14.6731826 L23.4783652,13.1288348" id="Stroke-7" stroke="#FFFFFF" stroke-linecap="round"></path>
                        <path d="M17.5097739,8.28187826 L21.4426435,9.3357913" id="Stroke-9" stroke="#FFFFFF" stroke-linecap="round"></path>
                        <polygon id="Fill-10" fill="#FFFFFF" points="18.7759304 11.2721739 18.482713 10.7191304 21.2103652 9.27391304 19.5700174 6.65895652 20.1021913 6.32608696 22.0983652 9.51182609"></polygon>
                        <path d="M17.5097739,8.28187826 L19.0541217,2.51666087" id="Stroke-11" stroke="#FFFFFF" stroke-linecap="round"></path>
                        <path d="M6.46768696,8.4770087 L6.11290435,4.4210087" id="Stroke-12" stroke="#FFFFFF" stroke-linecap="round"></path>
                        <polygon id="Fill-13" fill="#FFFFFF" points="8.84452174 6.2642087 8.42504348 6.7296 6.1346087 4.65933913 4.23756522 7.09586087 3.74295652 6.71081739 6.05426087 3.7442087"></polygon>
                        <path d="M6.46768696,8.4770087 L0.521947826,8.99770435" id="Stroke-14" stroke="#FFFFFF" stroke-linecap="round"></path>
                        <path d="M5.91078261,14.8122783 L2.2826087,12.9642783" id="Stroke-16" stroke="#FFFFFF" stroke-linecap="round"></path>
                        <polygon id="Fill-17" fill="#FFFFFF" points="5.29377391 11.6242435 5.4669913 12.2263304 2.49725217 13.0725913 3.55742609 15.9724174 2.96890435 16.1863304 1.67812174 12.6552"></polygon>
                        <path d="M5.91078261,14.8122783 L3.20086957,20.130887" id="Stroke-18" stroke="#FFFFFF" stroke-linecap="round"></path>
                        <path d="M11.6794435,18.3813913 L8.80048696,21.2603478" id="Stroke-19" stroke="#FFFFFF" stroke-linecap="round"></path>
                        <polygon id="Fill-21" fill="#FFFFFF" points="8.45634783 17.982887 9.08243478 18.0048 8.96973913 21.0903652 12.0553043 20.9776696 12.0772174 21.6037565 8.31965217 21.7404522"></polygon>
                        <g id="Group-26" transform="translate(7.304348, 7.471200)" stroke="#FFFFFF">
                            <path d="M4.37509565,10.9101913 L8.59492174,15.1300174" id="Stroke-22" stroke-linecap="round"></path>
                            <path d="M8.34824348,3.99766957 C8.34824348,6.09088696 6.65154783,7.78758261 4.55833043,7.78758261 C2.46511304,7.78758261 0.768417391,6.09088696 0.768417391,3.99766957 C0.768417391,1.90445217 2.46511304,0.207756522 4.55833043,0.207756522 C6.65154783,0.207756522 8.34824348,1.90445217 8.34824348,3.99766957 Z" id="Stroke-24"></path>
                        </g>
                    </g>
                </g>
            </g>
        </g>
    </g>
</svg>