<?xml version="1.0" encoding="UTF-8"?>
<svg width="24px" height="21px" viewBox="0 0 24 21" version="1.1" xmlns="http://www.w3.org/2000/svg" xmlns:xlink="http://www.w3.org/1999/xlink">
    <!-- Generator: sketchtool 53 (72520) - https://sketchapp.com -->
    <title>61CBF10B-3A45-4249-8D79-967EBC607FDF</title>
    <desc>Created with sketchtool.</desc>
    <g id="Page-1" stroke="none" stroke-width="1" fill="none" fill-rule="evenodd" stroke-linecap="round">
        <g id="A10-icons-(Light)" transform="translate(-595.000000, -538.000000)" stroke="#FFFFFF">
            <g id="Harmony-Controller" transform="translate(49.000000, 51.000000)">
                <g id="Row-4" transform="translate(12.000000, 484.000000)">
                    <g id="-g-Trouble" transform="translate(534.000000, 3.000000)">
                        <path d="M23.46,16.32 L0.5,16.32 L0.5,3.11 C0.5,1.6685368 1.6685368,0.5 3.11,0.5 L20.85,0.5 C22.2914632,0.5 23.46,1.6685368 23.46,3.11 L23.46,16.32 Z" id="Stroke-1"></path>
                        <path d="M18.16,20.41 L5.79,20.41" id="Stroke-3"></path>
                        <path d="M12,20.41 L12,16.41" id="Stroke-5"></path>
                        <path d="M17.92,6.82 L17.77,5.39 L16.23,6.51 C16.1175633,6.59171801 15.9770908,6.62502055 15.8399357,6.60247451 C15.7027806,6.57992848 15.5803607,6.50341072 15.5,6.39 L14.75,5.39 C14.668282,5.27756334 14.6349794,5.13709076 14.6575255,4.9999357 C14.6800715,4.86278064 14.7565893,4.7403607 14.87,4.66 L16.41,3.54 L15.09,2.96 L12.85,4.56 L13,5.65 L12.91,5.71 L5.79,10.85 C5.36664028,11.1572484 5.13935483,11.6670174 5.1937599,12.1872818 C5.24816496,12.7075463 5.57599511,13.1592658 6.0537599,13.3722818 C6.53152468,13.5852979 7.08664028,13.5272484 7.51,13.22 L14.59,8.07 C14.6210418,8.05219853 14.6482355,8.02840411 14.67,8 L15.67,8.45 L17.92,6.82 Z" id="Stroke-1-2"></path>
                    </g>
                </g>
            </g>
        </g>
    </g>
</svg>