<?xml version="1.0" encoding="UTF-8"?>
<svg width="26px" height="26px" viewBox="0 0 26 26" version="1.1" xmlns="http://www.w3.org/2000/svg" xmlns:xlink="http://www.w3.org/1999/xlink">
    <!-- Generator: sketchtool 53 (72520) - https://sketchapp.com -->
    <title>128EF57F-4AA0-49B2-AA78-64ED86BE9192</title>
    <desc>Created with sketchtool.</desc>
    <g id="Page-1" stroke="none" stroke-width="1" fill="none" fill-rule="evenodd" stroke-linecap="round">
        <g id="A10-icons-(Light)" transform="translate(-897.000000, -3371.000000)" stroke="#FFFFFF">
            <g id="Action-and-miscellaneous-icons" transform="translate(38.000000, 1975.000000)">
                <g id="Row-10" transform="translate(0.000000, 1397.000000)">
                    <g id="-g-min-max" transform="translate(860.000000, 0.000000)">
                        <polyline id="Shape" points="14.7311475 13.6754098 10.1278689 13.6754098 10.1278689 9.03278689"></polyline>
                        <path d="M10.1278689,13.6754098 L20.6,3.16393443" id="Shape"></path>
                        <polyline id="Shape" transform="translate(18.298361, 5.485246) scale(-1, -1) translate(-18.298361, -5.485246) " points="20.6 7.80655738 15.9967213 7.80655738 15.9967213 3.16393443"></polyline>
                        <path d="M7.5147541,23.947541 L0.432786885,23.947541 C0.196721311,23.947541 1.18571819e-13,23.7508197 1.18571819e-13,23.5147541 L1.18571819e-13,16.4327869 C1.18571819e-13,16.1967213 0.196721311,16 0.432786885,16 L7.5147541,16 C7.75081967,16 7.94754098,16.1967213 7.94754098,16.4327869 L7.94754098,23.5147541 C7.94754098,23.7508197 7.75081967,23.947541 7.5147541,23.947541 Z" id="Shape"></path>
                        <path d="M0.196721311,12 C0.196721311,11.0704864 0.196721311,10.4713311 0.196721311,10.202534 C0.196721311,7.87501387 0.196721311,4.76269378 0.196721311,0.86557377 C0.196721311,0.393442623 0.590163934,0 1.06229508,0 L22.9377049,0 C23.4098361,0 23.8032787,0.393442623 23.8032787,0.86557377 L23.8032787,22.7409836 C23.8032787,23.2131148 23.4098361,23.6065574 22.9377049,23.6065574 C19.1642498,23.6065574 16.0667483,23.6065574 13.6452003,23.6065574 C13.111557,23.6065574 12.5631569,23.6065574 12,23.6065574" id="Shape"></path>
                    </g>
                </g>
            </g>
        </g>
    </g>
</svg>